<?xml version="1.0" encoding="iso-8859-1"?>
<!-- Generator: Adobe Illustrator 19.0.0, SVG Export Plug-In . SVG Version: 6.00 Build 0)  -->
<svg version="1.1" id="Capa_1" xmlns="http://www.w3.org/2000/svg" xmlns:xlink="http://www.w3.org/1999/xlink" x="0px" y="0px"
	 viewBox="0 0 197.974 197.974" style="enable-background:new 0 0 197.974 197.974;" xml:space="preserve">
<g>
	<g>
		<path d="M68.267,145.067c-11.293,0-20.48,9.187-20.48,20.48s9.187,20.48,20.48,20.48c11.293,0,20.48-9.187,20.48-20.48
			S79.56,145.067,68.267,145.067z M68.267,179.2c-7.528,0-13.653-6.125-13.653-13.653c0-7.528,6.125-13.653,13.653-13.653
			c7.528,0,13.653,6.125,13.653,13.653C81.92,173.075,75.795,179.2,68.267,179.2z"/>
	</g>
</g>
<g>
	<g>
		<path d="M163.814,164.506c-0.575-11.278-10.225-19.992-21.494-19.415c-11.278,0.573-19.987,10.216-19.415,21.494
			c0.556,10.928,9.622,19.442,20.444,19.442c0.346,0,0.698-0.008,1.05-0.027C155.677,185.426,164.386,175.784,163.814,164.506z
			 M144.053,179.183c-7.526,0.399-13.947-5.425-14.329-12.943c-0.382-7.52,5.425-13.947,12.943-14.329
			c0.236-0.014,0.468-0.019,0.7-0.019c7.214,0,13.259,5.678,13.629,12.962C157.379,172.374,151.571,178.801,144.053,179.183z"/>
	</g>
</g>
<g>
	<g>
		<path d="M169.979,108.877c-0.645-0.855-1.656-1.357-2.726-1.357H50.452L27.204,14.533c-0.379-1.519-1.744-2.586-3.311-2.586H3.413
			C1.529,11.947,0,13.476,0,15.36s1.529,3.413,3.413,3.413h17.814l23.248,92.988c0.379,1.519,1.744,2.586,3.311,2.586h114.941
			l-4.876,17.067H54.613c-1.884,0-3.413,1.529-3.413,3.413c0,1.884,1.529,3.413,3.413,3.413h105.813c1.524,0,2.864-1.01,3.282-2.476
			l6.827-23.893C170.83,110.84,170.624,109.732,169.979,108.877z"/>
	</g>
</g>
<g>
	<g>
		<path d="M197.33,27.019c-0.642-0.891-1.673-1.418-2.77-1.418H44.373c-1.884,0-3.413,1.529-3.413,3.413s1.529,3.413,3.413,3.413
			h145.451l-22.397,67.186c-0.596,1.789,0.37,3.721,2.159,4.318c0.358,0.119,0.722,0.176,1.08,0.176
			c1.429,0,2.761-0.905,3.239-2.333l23.893-71.68C198.146,29.053,197.972,27.91,197.33,27.019z"/>
	</g>
</g>
<g>
	<g>
		<path d="M184.32,46.08H51.2c-1.884,0-3.413,1.529-3.413,3.413s1.529,3.413,3.413,3.413h133.12c1.884,0,3.413-1.529,3.413-3.413
			S186.204,46.08,184.32,46.08z"/>
	</g>
</g>
<g>
	<g>
		<path d="M177.493,66.56H58.027c-1.884,0-3.413,1.529-3.413,3.413c0,1.884,1.529,3.413,3.413,3.413h119.467
			c1.884,0,3.413-1.529,3.413-3.413C180.907,68.09,179.378,66.56,177.493,66.56z"/>
	</g>
</g>
<g>
	<g>
		<path d="M170.667,87.04H61.44c-1.884,0-3.413,1.529-3.413,3.413s1.529,3.413,3.413,3.413h109.227c1.884,0,3.413-1.529,3.413-3.413
			S172.551,87.04,170.667,87.04z"/>
	</g>
</g>
<g>
</g>
<g>
</g>
<g>
</g>
<g>
</g>
<g>
</g>
<g>
</g>
<g>
</g>
<g>
</g>
<g>
</g>
<g>
</g>
<g>
</g>
<g>
</g>
<g>
</g>
<g>
</g>
<g>
</g>
</svg>
